<svg width="1756" height="258" viewBox="0 0 1756 258" fill="none" xmlns="http://www.w3.org/2000/svg">
<path d="M0.709961 201V11.5469H104.836V30.5898H25.3682V94.9209H97.2676V113.842H25.3682V201H0.709961ZM153.664 201V64.6475H176.369V94.4326C183.449 83.2021 191.547 74.82 200.661 69.2861C209.857 63.6709 220.07 60.8633 231.301 60.8633C239.52 60.8633 247.74 62.1247 255.959 64.6475V113.842H234.108V82.7139C230.284 82.0628 227.272 81.7373 225.075 81.7373C216.612 81.7373 208.311 85.0739 200.173 91.7471C192.035 98.4202 184.1 108.43 176.369 121.776V201H153.664ZM381.813 170.36C374.896 181.754 366.555 190.339 356.789 196.117C347.105 201.895 338.194 204.784 330.056 204.784C318.662 204.784 308.409 199.861 299.294 190.014C290.261 180.167 285.744 165.233 285.744 145.214C285.744 129.426 288.755 115.347 294.777 102.978C300.799 90.5264 308.856 80.7201 318.947 73.5586C329.038 66.3158 341.53 62.6943 356.423 62.6943C360.736 62.6943 367.246 63.1419 375.954 64.0371C377.256 64.1999 379.209 64.4033 381.813 64.6475H404.641V160.961C404.641 177.4 406.35 190.746 409.768 201H386.086C384.296 193.513 382.871 183.3 381.813 170.36ZM381.813 143.383V84.9111C373.757 82.7952 366.27 81.7373 359.353 81.7373C345.355 81.7373 333.677 87.1491 324.318 97.9727C315.041 108.796 310.402 123.526 310.402 142.162C310.402 155.671 312.925 165.884 317.971 172.802C323.098 179.638 328.916 183.056 335.427 183.056C342.507 183.056 350.319 179.475 358.864 172.313C367.409 165.152 375.059 155.508 381.813 143.383ZM442.36 201V64.6475H465.065V94.4326C471.576 83.9346 479.429 75.7152 488.625 69.7744C497.821 63.8337 507.017 60.8633 516.213 60.8633C524.27 60.8633 531.594 63.0199 538.186 67.333C544.777 71.5648 549.375 77.1393 551.979 84.0566C554.665 90.974 556.008 104.564 556.008 124.828V201H533.303V122.021C533.303 108.918 532.652 100.292 531.35 96.1416C530.129 91.9098 527.81 88.4512 524.392 85.7656C521.055 83.0801 517.393 81.7373 513.405 81.7373C505.43 81.7373 496.844 85.5215 487.648 93.0898C478.534 100.658 471.006 110.139 465.065 121.532V201H442.36ZM707.253 197.094C692.035 202.221 677.549 204.784 663.796 204.784C650.124 204.784 637.958 201.651 627.297 195.385C616.717 189.037 608.457 180.492 602.517 169.75C596.576 158.926 593.605 146.638 593.605 132.885C593.605 112.214 600.319 95.043 613.747 81.3711C627.256 67.6992 643.532 60.8633 662.575 60.8633C676.654 60.8633 691.547 63.5081 707.253 68.7979V90.6484C691.384 83.4056 677.183 79.7842 664.65 79.7842C656.35 79.7842 648.537 81.8594 641.213 86.0098C633.889 90.0788 628.233 96.4671 624.245 105.175C620.257 113.882 618.264 122.834 618.264 132.03C618.264 144.319 622.089 156.037 629.738 167.187C637.469 178.336 649.554 183.91 665.993 183.91C670.957 183.91 675.84 183.585 680.642 182.934C685.443 182.201 694.313 179.638 707.253 175.243V197.094ZM856.057 191.967C837.909 200.593 820.738 204.906 804.543 204.906C792.255 204.906 781.268 201.854 771.584 195.751C761.9 189.647 754.128 180.94 748.269 169.628C742.491 158.235 739.602 146.068 739.602 133.129C739.602 120.678 742.368 108.715 747.902 97.2402C753.436 85.7656 761.167 76.8545 771.096 70.5068C781.024 64.0778 792.092 60.8633 804.299 60.8633C820.493 60.8633 833.474 66.6413 843.239 78.1973C853.086 89.7533 858.01 107.576 858.01 131.664V136.547H764.016C764.016 145.987 765.969 154.613 769.875 162.426C773.863 170.238 779.071 176.098 785.5 180.004C791.929 183.91 799.253 185.863 807.473 185.863C822.121 185.863 838.316 180.98 856.057 171.215V191.967ZM765.358 119.579H833.352V116.283C833.352 105.134 830.625 96.2637 825.173 89.6719C819.72 83.0801 812.437 79.7842 803.322 79.7842C794.126 79.7842 786.151 83.1615 779.396 89.916C772.723 96.5892 768.044 106.477 765.358 119.579ZM894.387 193.798V169.75C903.501 175.691 913.145 179.882 923.317 182.323C933.49 184.683 942.116 185.863 949.196 185.863C960.671 185.863 968.931 184.032 973.977 180.37C979.022 176.627 981.545 171.988 981.545 166.454C981.545 162.792 980.365 159.659 978.005 157.055C975.645 154.451 969.785 151.236 960.427 147.411L952.614 144.237L936.867 138.012C919.94 131.42 909.279 125.316 904.885 119.701C900.409 114.167 898.171 107.413 898.171 99.4375C898.171 88.207 902.484 78.9704 911.11 71.7275C919.818 64.4847 933.897 60.8633 953.347 60.8633C967.914 60.8633 981.708 62.9792 994.729 67.2109V87.8408C979.755 82.4697 965.676 79.7842 952.492 79.7842C942.889 79.7842 935.362 81.4932 929.909 84.9111C924.538 88.2477 921.853 92.4388 921.853 97.4844C921.853 102.367 924.213 106.273 928.933 109.203C933.571 112.133 941.14 115.51 951.638 119.335L967.019 124.95C981.097 130.077 990.985 135.652 996.682 141.674C1002.38 147.696 1005.23 155.224 1005.23 164.257C1005.23 176.057 1000.67 185.782 991.555 193.432C982.521 201 968.036 204.784 948.098 204.784C930.682 204.784 912.779 201.122 894.387 193.798ZM1157.69 197.094C1142.47 202.221 1127.99 204.784 1114.24 204.784C1100.56 204.784 1088.4 201.651 1077.74 195.385C1067.16 189.037 1058.9 180.492 1052.96 169.75C1047.02 158.926 1044.04 146.638 1044.04 132.885C1044.04 112.214 1050.76 95.043 1064.19 81.3711C1077.7 67.6992 1093.97 60.8633 1113.01 60.8633C1127.09 60.8633 1141.99 63.5081 1157.69 68.7979V90.6484C1141.82 83.4056 1127.62 79.7842 1115.09 79.7842C1106.79 79.7842 1098.98 81.8594 1091.65 86.0098C1084.33 90.0788 1078.67 96.4671 1074.68 105.175C1070.7 113.882 1068.7 122.834 1068.7 132.03C1068.7 144.319 1072.53 156.037 1080.18 167.187C1087.91 178.336 1099.99 183.91 1116.43 183.91C1121.4 183.91 1126.28 183.585 1131.08 182.934C1135.88 182.201 1144.75 179.638 1157.69 175.243V197.094ZM1249.25 204.784C1229.71 204.784 1214.09 197.989 1202.37 184.398C1190.65 170.727 1184.79 153.515 1184.79 132.763C1184.79 112.011 1190.65 94.8395 1202.37 81.249C1214.09 67.6585 1229.71 60.8633 1249.25 60.8633C1268.69 60.8633 1284.28 67.6585 1296 81.249C1307.72 94.8395 1313.58 112.011 1313.58 132.763C1313.58 153.515 1307.72 170.727 1296 184.398C1284.28 197.989 1268.69 204.784 1249.25 204.784ZM1249.25 185.863C1261.37 185.863 1271.01 181.143 1278.18 171.703C1285.34 162.263 1288.92 149.283 1288.92 132.763C1288.92 116.324 1285.34 103.384 1278.18 93.9443C1271.01 84.5042 1261.37 79.7842 1249.25 79.7842C1237.04 79.7842 1227.35 84.5042 1220.19 93.9443C1213.03 103.384 1209.45 116.324 1209.45 132.763C1209.45 149.283 1213.03 162.263 1220.19 171.703C1227.35 181.143 1237.04 185.863 1249.25 185.863ZM1399.27 206.737C1393.82 206.737 1389.14 204.784 1385.23 200.878C1381.33 196.972 1379.37 192.292 1379.37 186.84C1379.37 181.306 1381.33 176.627 1385.23 172.802C1389.22 168.896 1393.9 166.942 1399.27 166.942C1404.64 166.942 1409.28 168.896 1413.19 172.802C1417.17 176.627 1419.17 181.306 1419.17 186.84C1419.17 192.292 1417.21 196.972 1413.31 200.878C1409.4 204.784 1404.72 206.737 1399.27 206.737ZM1495.46 254.467V233.227C1508.16 236.97 1518.86 238.842 1527.57 238.842C1535.13 238.842 1541.56 237.499 1546.85 234.813C1552.14 232.209 1556.25 227.774 1559.18 221.508C1562.19 215.242 1563.7 204.337 1563.7 188.793V83.5684H1505.84V64.6475H1586.4V184.521C1586.4 207.632 1583.68 223.664 1578.22 232.616C1572.77 241.649 1566.18 248.119 1558.45 252.025C1550.72 255.932 1540.14 257.885 1526.71 257.885C1517.03 257.885 1506.61 256.745 1495.46 254.467ZM1559.91 15.4531C1559.91 10.3262 1561.62 6.5013 1565.04 3.97852C1568.54 1.45573 1571.88 0.194336 1575.05 0.194336C1578.22 0.194336 1581.52 1.45573 1584.94 3.97852C1588.44 6.5013 1590.19 10.3262 1590.19 15.4531C1590.19 20.4987 1588.44 24.2829 1584.94 26.8057C1581.52 29.3285 1578.22 30.5898 1575.05 30.5898C1571.88 30.5898 1568.54 29.3285 1565.04 26.8057C1561.62 24.2829 1559.91 20.4987 1559.91 15.4531ZM1645.12 193.798V169.75C1654.23 175.691 1663.88 179.882 1674.05 182.323C1684.22 184.683 1692.85 185.863 1699.93 185.863C1711.4 185.863 1719.66 184.032 1724.71 180.37C1729.75 176.627 1732.28 171.988 1732.28 166.454C1732.28 162.792 1731.1 159.659 1728.74 157.055C1726.38 154.451 1720.52 151.236 1711.16 147.411L1703.35 144.237L1687.6 138.012C1670.67 131.42 1660.01 125.316 1655.62 119.701C1651.14 114.167 1648.9 107.413 1648.9 99.4375C1648.9 88.207 1653.22 78.9704 1661.84 71.7275C1670.55 64.4847 1684.63 60.8633 1704.08 60.8633C1718.65 60.8633 1732.44 62.9792 1745.46 67.2109V87.8408C1730.49 82.4697 1716.41 79.7842 1703.22 79.7842C1693.62 79.7842 1686.09 81.4932 1680.64 84.9111C1675.27 88.2477 1672.58 92.4388 1672.58 97.4844C1672.58 102.367 1674.94 106.273 1679.67 109.203C1684.3 112.133 1691.87 115.51 1702.37 119.335L1717.75 124.95C1731.83 130.077 1741.72 135.652 1747.41 141.674C1753.11 147.696 1755.96 155.224 1755.96 164.257C1755.96 176.057 1751.4 185.782 1742.29 193.432C1733.25 201 1718.77 204.784 1698.83 204.784C1681.41 204.784 1663.51 201.122 1645.12 193.798Z" fill="#181818"/>
</svg>
